<?xml version="1.0" standalone="no"?>
<!DOCTYPE svg PUBLIC "-//W3C//DTD SVG 20010904//EN"
 "http://www.w3.org/TR/2001/REC-SVG-20010904/DTD/svg10.dtd">
<svg version="1.0" xmlns="http://www.w3.org/2000/svg"
 width="512.000000pt" height="512.000000pt" viewBox="0 0 512.000000 512.000000"
 preserveAspectRatio="xMidYMid meet">
<metadata>
Created by potrace 1.11, written by Peter Selinger 2001-2013
</metadata>
<g transform="translate(0.000000,512.000000) scale(0.100000,-0.100000)"
fill="#000000" stroke="none">
<path d="M2375 5114 c-16 -2 -73 -9 -125 -15 -380 -42 -779 -191 -1113 -413
-284 -189 -557 -469 -742 -762 -70 -111 -192 -357 -239 -485 -51 -138 -103
-343 -128 -504 -31 -200 -31 -550 0 -750 43 -278 115 -502 242 -760 138 -279
290 -487 522 -710 398 -385 897 -623 1458 -697 52 -7 192 -12 310 -12 118 0
258 5 310 12 455 60 870 229 1239 505 53 39 168 144 256 232 230 229 352 399
490 680 123 249 194 476 237 750 31 200 31 550 0 750 -43 273 -114 498 -237
750 -136 279 -260 450 -490 680 -88 88 -203 193 -256 232 -359 269 -758 434
-1199 499 -100 14 -471 27 -535 18z m-11 -1674 c36 -11 95 -41 132 -65 l67
-45 58 39 c97 65 158 84 284 89 94 3 119 1 175 -18 167 -56 288 -175 352 -346
22 -59 23 -63 26 -751 l3 -693 -180 0 -181 0 -2 668 -3 668 -25 37 c-49 71
-154 101 -226 64 -42 -22 -83 -69 -94 -108 -6 -20 -10 -288 -10 -681 l0 -648
-180 0 -180 0 -2 673 -3 674 -28 36 c-37 49 -80 70 -142 70 -76 0 -140 -41
-164 -106 -7 -19 -11 -245 -11 -688 l0 -659 -180 0 -180 0 0 678 c0 576 2 687
15 737 46 174 177 311 355 372 88 30 230 31 324 3z"/>
</g>
</svg>
